<svg width="30" height="30" viewBox="0 0 30 30" fill="none" xmlns="http://www.w3.org/2000/svg">
<path d="M12.5104 1.90141C13.5784 0.699529 15.4233 0.699529 16.4913 1.90141L17.8646 3.44697C18.4042 4.05441 19.18 4.38374 19.9808 4.34538L22.0181 4.2478C23.6023 4.1719 24.907 5.50913 24.833 7.13298L24.7377 9.22114C24.7003 10.0418 25.0216 10.8369 25.6143 11.3901L27.1222 12.7976C28.2949 13.8923 28.2949 15.7833 27.1222 16.8779L25.6143 18.2855C25.0216 18.8386 24.7003 19.6337 24.7377 20.4545L24.833 22.5426C24.907 24.1664 23.6023 25.5037 22.0181 25.4278L19.9808 25.3301C19.18 25.2918 18.4042 25.6211 17.8646 26.2286L16.4913 27.7741C15.4233 28.9761 13.5784 28.9761 12.5104 27.7741L11.1371 26.2286C10.5974 25.6211 9.82166 25.2918 9.02097 25.3301L6.98364 25.4278C5.39934 25.5037 4.09467 24.1664 4.16872 22.5426L4.26393 20.4545C4.30135 19.6337 3.98004 18.8386 3.38739 18.2855L1.87946 16.8779C0.706845 15.7833 0.706845 13.8923 1.87946 12.7976L3.38739 11.3901C3.98004 10.8369 4.30135 10.0418 4.26393 9.22114L4.16872 7.13296C4.09467 5.50913 5.39934 4.1719 6.98365 4.2478L9.02097 4.34538C9.82166 4.38374 10.5974 4.05441 11.1371 3.44697L12.5104 1.90141Z" stroke="#C86445" stroke-width="2"/>
<path d="M10.4619 14.8381L13.1541 17.5975L18.5385 12.0787" stroke="#C86445" stroke-width="2" stroke-linecap="round" stroke-linejoin="round"/>
</svg>
